<svg width="91" height="81" viewBox="0 0 91 81" fill="none" xmlns="http://www.w3.org/2000/svg">
<path d="M45.0409 25.2648C45.9857 25.2648 46.8919 25.5822 47.56 26.1472C48.2281 26.7122 48.6034 27.4785 48.6034 28.2775V46.3538C48.6034 47.1528 48.2281 47.9191 47.56 48.4841C46.8919 49.0491 45.9857 49.3665 45.0409 49.3665C44.096 49.3665 43.1899 49.0491 42.5218 48.4841C41.8536 47.9191 41.4783 47.1528 41.4783 46.3538V28.2775C41.4783 27.4785 41.8536 26.7122 42.5218 26.1472C43.1899 25.5822 44.096 25.2648 45.0409 25.2648ZM45.0409 62.9237C46.4581 62.9237 47.8174 62.4476 48.8195 61.6001C49.8217 60.7526 50.3847 59.6032 50.3847 58.4047C50.3847 57.2061 49.8217 56.0567 48.8195 55.2092C47.8174 54.3617 46.4581 53.8856 45.0409 53.8856C43.6236 53.8856 42.2644 54.3617 41.2622 55.2092C40.26 56.0567 39.697 57.2061 39.697 58.4047C39.697 59.6032 40.26 60.7526 41.2622 61.6001C42.2644 62.4476 43.6236 62.9237 45.0409 62.9237Z" fill="#E9E9E9"/>
<path fill-rule="evenodd" clip-rule="evenodd" d="M33.5639 9.47873C38.5388 0.9251 51.3295 0.9251 56.3043 9.47873L85.2413 59.2259C90.1054 67.5913 83.8273 77.9046 73.8711 77.9046H15.9972C6.04093 77.9046 -0.237113 67.5913 4.62698 59.229L33.5639 9.47873ZM50.6192 12.5464C48.1302 8.26798 41.7381 8.26798 39.249 12.5464L10.3121 62.2935C7.88166 66.4747 11.019 71.6313 15.9972 71.6313H73.8711C78.8492 71.6313 81.9866 66.4747 79.5562 62.2935L50.6192 12.5464Z" fill="#E9E9E9"/>
</svg>
