<svg xmlns="http://www.w3.org/2000/svg" xmlns:xlink="http://www.w3.org/1999/xlink" width="1080" zoomAndPan="magnify" viewBox="0 0 810 809.999993" height="1080" preserveAspectRatio="xMidYMid meet" version="1.0"><defs><clipPath id="a0dbf16f99"><path d="M 18 61.46875 L 791.824219 61.46875 L 791.824219 748.46875 L 18 748.46875 Z M 18 61.46875 " clip-rule="nonzero"/></clipPath></defs><g clip-path="url(#a0dbf16f99)"><path fill="#1a1a1a" d="M 782.902344 651.996094 L 460.84375 93.761719 C 449.699219 74.480469 428.851562 61.46875 405 61.46875 C 381.144531 61.46875 360.296875 74.480469 349.152344 93.761719 L 27.09375 651.996094 C 21.664062 661.441406 18.527344 672.414062 18.527344 684.117188 C 18.527344 719.671875 47.386719 748.527344 82.941406 748.527344 L 727.058594 748.527344 C 762.613281 748.527344 791.46875 719.671875 791.46875 684.117188 C 791.46875 672.414062 788.355469 661.441406 782.902344 651.996094 Z M 82.898438 684.179688 L 404.933594 125.878906 L 405 125.878906 L 405.042969 125.945312 L 727.058594 684.117188 Z M 405 533.820312 C 381.296875 533.820312 362.058594 553.058594 362.058594 576.761719 C 362.058594 600.488281 381.273438 619.703125 405 619.703125 C 428.722656 619.703125 447.941406 600.464844 447.941406 576.761719 C 447.941406 553.058594 428.722656 533.820312 405 533.820312 Z M 362.058594 340.585938 C 362.058594 343.035156 362.273438 345.460938 362.660156 347.800781 L 383.808594 473.015625 C 385.546875 483.171875 394.371094 490.878906 405 490.878906 C 415.625 490.878906 424.449219 483.171875 426.167969 473.015625 L 447.316406 347.800781 C 447.726562 345.460938 447.941406 343.035156 447.941406 340.585938 C 447.941406 316.882812 428.722656 297.644531 405 297.644531 C 381.296875 297.644531 362.058594 316.882812 362.058594 340.585938 Z M 362.058594 340.585938 " fill-opacity="1" fill-rule="evenodd"/></g></svg>